# Blender 4.0.1
# www.blender.org
g frame_Mesh
v -0.500000 -1.629415 2.000000
v 0.500000 -1.629415 2.000000
v -0.500000 -1.629415 3.629415
v 0.500000 -1.629415 3.629415
v -0.500000 -1.629415 0.370585
v 0.500000 -1.629415 0.370585
v -0.500000 2.000000 0.000000
v 0.500000 2.000000 0.000000
v -0.500000 -2.000000 0.000000
v 0.500000 -2.000000 0.000000
v -0.500000 0.000000 0.000000
v 0.500000 0.000000 0.000000
v -0.500000 -1.000000 0.000000
v 0.500000 -1.000000 0.000000
v 0.500000 1.000000 0.000000
v -0.500000 1.000000 0.000000
v -0.500000 0.000000 3.629415
v 0.500000 0.000000 3.629415
v -0.500000 -1.629415 3.629415
v 0.500000 -1.629415 3.629415
v 0.500000 1.629415 3.629415
v -0.500000 1.629415 3.629415
v 0.500000 2.000000 4.000000
v 0.500000 2.000000 0.000000
v 0.500000 -2.000000 4.000000
v 0.500000 -2.000000 0.000000
v 0.500000 0.000000 4.000000
v 0.500000 0.000000 0.000000
v 0.500000 -1.000000 4.000000
v 0.500000 -1.000000 0.000000
v 0.500000 1.000000 0.000000
v 0.500000 1.000000 4.000000
v 0.500000 -2.000000 2.000000
v 0.500000 2.000000 2.000000
v 0.500000 -1.629415 2.000000
v 0.500000 1.629415 2.000000
v 0.500000 -2.000000 3.000000
v 0.500000 2.000000 3.000000
v 0.500000 0.000000 3.629415
v 0.500000 -1.629415 3.629415
v 0.500000 1.629415 3.629415
v 0.500000 2.000000 1.000000
v 0.500000 0.000000 0.370585
v 0.500000 -1.629415 0.370585
v 0.500000 1.629415 0.370585
v 0.500000 -2.000000 1.000000
v -0.500000 2.000000 4.000000
v -0.500000 2.000000 0.000000
v -0.500000 -2.000000 4.000000
v -0.500000 -2.000000 0.000000
v -0.500000 0.000000 0.000000
v -0.500000 0.000000 4.000000
v -0.500000 -1.000000 0.000000
v -0.500000 -1.000000 4.000000
v -0.500000 1.000000 4.000000
v -0.500000 1.000000 0.000000
v -0.500000 2.000000 2.000000
v -0.500000 -2.000000 2.000000
v -0.500000 -1.629415 2.000000
v -0.500000 1.629415 2.000000
v -0.500000 2.000000 3.000000
v -0.500000 -2.000000 3.000000
v -0.500000 0.000000 3.629415
v -0.500000 -1.629415 3.629415
v -0.500000 1.629415 3.629415
v -0.500000 2.000000 1.000000
v -0.500000 -2.000000 1.000000
v -0.500000 0.000000 0.370585
v -0.500000 -1.629415 0.370585
v -0.500000 1.629415 0.370585
v -0.500000 2.000000 4.000000
v 0.500000 2.000000 4.000000
v -0.500000 -2.000000 4.000000
v 0.500000 -2.000000 4.000000
v 0.500000 0.000000 4.000000
v -0.500000 0.000000 4.000000
v 0.500000 -1.000000 4.000000
v -0.500000 -1.000000 4.000000
v -0.500000 1.000000 4.000000
v 0.500000 1.000000 4.000000
v -0.500000 -2.000000 4.000000
v -0.500000 -2.000000 0.000000
v 0.500000 -2.000000 4.000000
v 0.500000 -2.000000 0.000000
v 0.500000 -2.000000 2.000000
v -0.500000 -2.000000 2.000000
v 0.500000 -2.000000 3.000000
v -0.500000 -2.000000 3.000000
v -0.500000 -2.000000 1.000000
v 0.500000 -2.000000 1.000000
v -0.500000 2.000000 4.000000
v -0.500000 2.000000 0.000000
v 0.500000 2.000000 4.000000
v 0.500000 2.000000 0.000000
v -0.500000 2.000000 2.000000
v 0.500000 2.000000 2.000000
v -0.500000 2.000000 3.000000
v 0.500000 2.000000 3.000000
v -0.500000 2.000000 1.000000
v 0.500000 2.000000 1.000000
v 0.500000 1.629415 2.000000
v -0.500000 1.629415 2.000000
v 0.500000 1.629415 3.629415
v -0.500000 1.629415 3.629415
v 0.500000 1.629415 0.370585
v -0.500000 1.629415 0.370585
v -0.500000 0.000000 0.370585
v 0.500000 0.000000 0.370585
v -0.500000 -1.629415 0.370585
v 0.500000 -1.629415 0.370585
v 0.500000 1.629415 0.370585
v -0.500000 1.629415 0.370585
vn -0.0000 1.0000 -0.0000
vn -0.0000 -0.0000 -1.0000
vn 1.0000 -0.0000 -0.0000
vn -1.0000 -0.0000 -0.0000
vn -0.0000 -0.0000 1.0000
vn -0.0000 -1.0000 -0.0000
s 0
f 3//1 2//1 1//1
f 1//1 6//1 5//1
f 7//2 15//2 16//2
f 11//2 14//2 13//2
f 13//2 10//2 9//2
f 16//2 12//2 11//2
f 22//2 18//2 17//2
f 17//2 20//2 19//2
f 40//3 25//3 37//3
f 32//3 39//3 41//3
f 39//3 29//3 40//3
f 23//3 41//3 38//3
f 42//3 36//3 45//3
f 35//3 46//3 44//3
f 38//3 36//3 34//3
f 35//3 37//3 33//3
f 44//3 26//3 30//3
f 31//3 43//3 28//3
f 43//3 30//3 28//3
f 24//3 45//3 31//3
f 65//4 47//4 61//4
f 54//4 63//4 64//4
f 49//4 64//4 62//4
f 63//4 55//4 65//4
f 67//4 59//4 69//4
f 60//4 66//4 70//4
f 62//4 59//4 58//4
f 60//4 61//4 57//4
f 70//4 48//4 56//4
f 53//4 68//4 51//4
f 50//4 69//4 53//4
f 68//4 56//4 51//4
f 73//5 77//5 78//5
f 76//5 80//5 79//5
f 78//5 75//5 76//5
f 79//5 72//5 71//5
f 83//6 88//6 87//6
f 85//6 89//6 90//6
f 87//6 86//6 85//6
f 90//6 82//6 84//6
f 91//1 98//1 97//1
f 95//1 100//1 99//1
f 97//1 96//1 95//1
f 99//1 94//1 92//1
f 106//6 101//6 102//6
f 102//6 103//6 104//6
f 107//5 111//5 112//5
f 109//5 108//5 107//5
f 3//1 4//1 2//1
f 1//1 2//1 6//1
f 7//2 8//2 15//2
f 11//2 12//2 14//2
f 13//2 14//2 10//2
f 16//2 15//2 12//2
f 22//2 21//2 18//2
f 17//2 18//2 20//2
f 40//3 29//3 25//3
f 32//3 27//3 39//3
f 39//3 27//3 29//3
f 23//3 32//3 41//3
f 42//3 34//3 36//3
f 35//3 33//3 46//3
f 38//3 41//3 36//3
f 35//3 40//3 37//3
f 44//3 46//3 26//3
f 31//3 45//3 43//3
f 43//3 44//3 30//3
f 24//3 42//3 45//3
f 65//4 55//4 47//4
f 54//4 52//4 63//4
f 49//4 54//4 64//4
f 63//4 52//4 55//4
f 67//4 58//4 59//4
f 60//4 57//4 66//4
f 62//4 64//4 59//4
f 60//4 65//4 61//4
f 70//4 66//4 48//4
f 53//4 69//4 68//4
f 50//4 67//4 69//4
f 68//4 70//4 56//4
f 73//5 74//5 77//5
f 76//5 75//5 80//5
f 78//5 77//5 75//5
f 79//5 80//5 72//5
f 83//6 81//6 88//6
f 85//6 86//6 89//6
f 87//6 88//6 86//6
f 90//6 89//6 82//6
f 91//1 93//1 98//1
f 95//1 96//1 100//1
f 97//1 98//1 96//1
f 99//1 100//1 94//1
f 106//6 105//6 101//6
f 102//6 101//6 103//6
f 107//5 108//5 111//5
f 109//5 110//5 108//5
