<?xml version="1.0" encoding="UTF-8" standalone="no"?><svg xmlns="http://www.w3.org/2000/svg" xmlns:xlink="http://www.w3.org/1999/xlink" contentStyleType="text/css" height="59px" preserveAspectRatio="none" style="width:368px;height:59px;" version="1.1" viewBox="0 0 368 59" width="368px" zoomAndPan="magnify"><defs/><g><!--MD5=[e5b7da8fa23ec8cac7d321a34f6e9ee1]
entity Application--><g id="elem_Application"><polygon fill="#F1F1F1" points="9.5,7,9.5,7.2102,19.3333,6.5857,29.1667,7.1933,39,7.3997,48.8333,6.2866,58.6667,6.9223,68.5,6.5735,78.3333,6.6165,88.1667,6.9318,98,6.3086,107.8333,7.5536,117.6667,6.3697,127.5,7,127.4748,6.9391,127.9087,7.2795,128.1962,7.2665,128.5694,7.4604,128.9101,7.5759,129.2678,7.7322,129.3227,7.755,129.4879,8.1163,129.741,8.5141,129.9138,8.8785,130.0627,9.2331,130,9.5,130.0849,9.5,130.1545,17.7594,130.2341,26.0188,129.7596,34.2781,130.2262,42.5375,130,50.7969,129.9087,50.7591,130.0179,51.2185,129.5547,51.4408,129.5396,51.8488,129.6426,52.3057,129.2678,52.5646,129.2616,52.5496,128.9276,52.7435,128.6039,52.9618,128.2602,53.1322,127.8531,53.1492,127.5,53.2969,127.5,53.5841,117.6667,52.7245,107.8333,53.5813,98,53.8451,88.1667,53.7414,78.3333,53.9099,68.5,52.8138,58.6667,52.6447,48.8333,52.6755,39,53.238,29.1667,53.1003,19.3333,53.9783,9.5,53.2969,9.4777,53.2431,9.1027,53.0448,8.822,53.0743,8.3543,52.6522,8.0196,52.5512,7.7322,52.5646,7.9321,52.6474,7.72,52.2667,7.6655,51.9512,7.1938,51.4629,7.2447,51.1911,7,50.7969,7.1968,50.7969,6.8425,42.5375,6.968,34.2781,7.042,26.0187,7.2173,17.7594,7,9.5,6.9987,9.4995,7.2889,9.2055,7.1223,8.7223,7.2308,8.3529,7.7409,8.15,7.7322,7.7322,7.6408,7.5114,8.1507,7.7425,8.4657,7.503,8.7587,7.2104,9.1013,7.0375,9.5,7" style="stroke:#181818;stroke-width:0.5;"/><polygon fill="#F1F1F1" points="110,12,110,12.0701,113,11.8619,116,12.0644,119,12.1332,122,11.7622,125,12,124.9741,12,124.8578,14,124.8722,16,124.9773,18,124.7695,20,125,22,125,22.1845,122,21.7899,119,21.9341,116,22.144,113,21.9714,110,22,110.0227,22,109.9894,20,110.0595,18,110.0797,16,110.1952,14,110,12" style="stroke:#181818;stroke-width:0.5;"/><polygon fill="#F1F1F1" points="108,14,108,14.0701,108.8,13.8619,109.6,14.0644,110.4,14.1332,111.2,13.7622,112,14,111.9741,14,111.8578,14.4,111.8722,14.8,111.9773,15.2,111.7695,15.6,112,16,112,16.1845,111.2,15.7899,110.4,15.9341,109.6,16.144,108.8,15.9714,108,16,108.0227,16,107.9894,15.6,108.0595,15.2,108.0797,14.8,108.1952,14.4,108,14" style="stroke:#181818;stroke-width:0.5;"/><polygon fill="#F1F1F1" points="108,18,108,18.0701,108.8,17.8619,109.6,18.0644,110.4,18.1332,111.2,17.7622,112,18,111.9741,18,111.8578,18.4,111.8722,18.8,111.9773,19.2,111.7695,19.6,112,20,112,20.1845,111.2,19.7899,110.4,19.9341,109.6,20.144,108.8,19.9714,108,20,108.0227,20,107.9894,19.6,108.0595,19.2,108.0797,18.8,108.1952,18.4,108,18" style="stroke:#181818;stroke-width:0.5;"/><text fill="#000000" font-family="sans-serif" font-size="14" lengthAdjust="spacing" textLength="83" x="22" y="39.9951">Application</text></g><!--MD5=[f0714dba5129a9b38a64ebd69cde6f04]
entity Magic--><g id="elem_Magic"><polygon fill="#F1F1F1" points="167.5,7,167.5,7.2102,177,6.5857,186.5,7.1933,196,7.3997,205.5,6.2866,215,6.9223,224.5,6.5735,234,6.6165,243.5,7,243.4913,6.979,243.7654,6.9335,244.2777,7.4634,244.4803,7.2452,244.889,7.5249,245.2678,7.7322,245.4008,7.7873,245.3878,8.0748,245.5817,8.448,245.6973,8.7888,245.9085,9.1692,246,9.5,246.0797,9.5,246.1952,17.7594,246.2237,26.0188,246.2264,34.2781,246.0849,42.5375,246,50.7969,246.1428,50.856,246.0698,51.24,245.485,51.412,245.7696,51.9441,245.3229,52.1733,245.2678,52.5646,245.3359,52.729,244.8511,52.5586,244.5519,52.8364,244.3017,53.2324,243.8473,53.1354,243.5,53.2969,243.5,53.4022,234,53.6355,224.5,53.7131,215,53.293,205.5,53.5841,196,52.7245,186.5,53.5813,177,53.8451,167.5,53.2969,167.5567,53.4338,167.2246,53.3392,166.7313,52.8552,166.3561,52.6567,166.0065,52.5197,165.7322,52.5646,165.7141,52.5571,165.5253,52.186,165.6492,51.9445,165.2391,51.4817,165.0408,51.1067,165,50.7969,165.0761,50.7969,164.7777,42.5375,164.827,34.2781,165.2163,26.0187,165.1452,17.7594,165,9.5,165.2262,9.5937,165.0473,9.1054,165.3912,8.8336,165.6212,8.5147,165.4403,8.0255,165.7322,7.7322,165.72,7.7027,166.1019,7.6246,166.5225,7.6401,166.7924,7.2916,167.2055,7.2889,167.5,7" style="stroke:#181818;stroke-width:0.5;"/><polygon fill="#F1F1F1" points="226,12,226,12.0701,229,11.8619,232,12.0644,235,12.1332,238,11.7622,241,12,240.9741,12,240.8578,14,240.8722,16,240.9773,18,240.7695,20,241,22,241,22.1845,238,21.7899,235,21.9341,232,22.144,229,21.9714,226,22,226.0227,22,225.9894,20,226.0595,18,226.0797,16,226.1952,14,226,12" style="stroke:#181818;stroke-width:0.5;"/><polygon fill="#F1F1F1" points="224,14,224,14.0701,224.8,13.8619,225.6,14.0644,226.4,14.1332,227.2,13.7622,228,14,227.9741,14,227.8578,14.4,227.8722,14.8,227.9773,15.2,227.7695,15.6,228,16,228,16.1845,227.2,15.7899,226.4,15.9341,225.6,16.144,224.8,15.9714,224,16,224.0227,16,223.9894,15.6,224.0595,15.2,224.0797,14.8,224.1952,14.4,224,14" style="stroke:#181818;stroke-width:0.5;"/><polygon fill="#F1F1F1" points="224,18,224,18.0701,224.8,17.8619,225.6,18.0644,226.4,18.1332,227.2,17.7622,228,18,227.9741,18,227.8578,18.4,227.8722,18.8,227.9773,19.2,227.7695,19.6,228,20,228,20.1845,227.2,19.7899,226.4,19.9341,225.6,20.144,224.8,19.9714,224,20,224.0227,20,223.9894,19.6,224.0595,19.2,224.0797,18.8,224.1952,18.4,224,18" style="stroke:#181818;stroke-width:0.5;"/><text fill="#000000" font-family="sans-serif" font-size="14" lengthAdjust="spacing" textLength="41" x="180" y="39.9951">Magic</text></g><!--MD5=[487b6966228a0bf8882d8384eba68abd]
entity Pixels--><g id="elem_Pixels"><polygon fill="#F1F1F1" points="283.5,7,283.5,7.2102,293,6.5857,302.5,7.1933,312,7.3997,321.5,6.2866,331,6.9223,340.5,6.5735,350,6.6165,359.5,7,359.4913,6.979,359.7654,6.9335,360.2777,7.4634,360.4803,7.2452,360.889,7.5249,361.2678,7.7322,361.4008,7.7873,361.3878,8.0748,361.5817,8.448,361.6973,8.7888,361.9085,9.1692,362,9.5,362.0797,9.5,362.1952,17.7594,362.2237,26.0188,362.2264,34.2781,362.0849,42.5375,362,50.7969,362.1428,50.856,362.0698,51.24,361.485,51.412,361.7696,51.9441,361.3229,52.1733,361.2678,52.5646,361.3359,52.729,360.8511,52.5586,360.5519,52.8364,360.3017,53.2324,359.8473,53.1354,359.5,53.2969,359.5,53.4022,350,53.6355,340.5,53.7131,331,53.293,321.5,53.5841,312,52.7245,302.5,53.5813,293,53.8451,283.5,53.2969,283.5567,53.4338,283.2246,53.3392,282.7313,52.8552,282.3561,52.6567,282.0065,52.5197,281.7322,52.5646,281.7141,52.5571,281.5253,52.186,281.6492,51.9445,281.2391,51.4817,281.0408,51.1067,281,50.7969,281.0761,50.7969,280.7777,42.5375,280.827,34.2781,281.2163,26.0187,281.1452,17.7594,281,9.5,281.2262,9.5937,281.0473,9.1054,281.3912,8.8336,281.6212,8.5147,281.4403,8.0255,281.7322,7.7322,281.72,7.7027,282.1019,7.6246,282.5225,7.6401,282.7924,7.2916,283.2055,7.2889,283.5,7" style="stroke:#181818;stroke-width:0.5;"/><polygon fill="#F1F1F1" points="342,12,342,12.0701,345,11.8619,348,12.0644,351,12.1332,354,11.7622,357,12,356.9741,12,356.8578,14,356.8722,16,356.9773,18,356.7695,20,357,22,357,22.1845,354,21.7899,351,21.9341,348,22.144,345,21.9714,342,22,342.0227,22,341.9894,20,342.0595,18,342.0797,16,342.1952,14,342,12" style="stroke:#181818;stroke-width:0.5;"/><polygon fill="#F1F1F1" points="340,14,340,14.0701,340.8,13.8619,341.6,14.0644,342.4,14.1332,343.2,13.7622,344,14,343.9741,14,343.8578,14.4,343.8722,14.8,343.9773,15.2,343.7695,15.6,344,16,344,16.1845,343.2,15.7899,342.4,15.9341,341.6,16.144,340.8,15.9714,340,16,340.0227,16,339.9894,15.6,340.0595,15.2,340.0797,14.8,340.1952,14.4,340,14" style="stroke:#181818;stroke-width:0.5;"/><polygon fill="#F1F1F1" points="340,18,340,18.0701,340.8,17.8619,341.6,18.0644,342.4,18.1332,343.2,17.7622,344,18,343.9741,18,343.8578,18.4,343.8722,18.8,343.9773,19.2,343.7695,19.6,344,20,344,20.1845,343.2,19.7899,342.4,19.9341,341.6,20.144,340.8,19.9714,340,20,340.0227,20,339.9894,19.6,340.0595,19.2,340.0797,18.8,340.1952,18.4,340,18" style="stroke:#181818;stroke-width:0.5;"/><text fill="#000000" font-family="sans-serif" font-size="14" lengthAdjust="spacing" textLength="41" x="296" y="39.9951">Pixels</text></g><!--MD5=[30861b7c27f276673f0b12aecfe95e8f]
link Application to Magic--><g id="link_Application_Magic"><path d="M130.043,30 L130.043,30.0934 L135.9666,29.8159 L141.8902,30.0859 L147.8138,30.1776 L153.7374,29.6829 L159.661,30 " fill="none" style="stroke:#181818;stroke-width:1.0;"/><polygon fill="#181818" points="164.824,30,164.8525,30.064,162.9679,29.0738,161.2502,28.4589,159.4781,27.7217,157.5274,26.5827,155.824,26,155.8057,25.9817,156.5235,26.6995,157.3336,27.5096,158.2079,28.3839,158.861,29.037,159.824,30,159.9545,30.1305,158.8754,30.6514,158.1774,31.5534,157.5258,32.5018,156.6038,33.1798,155.824,34,155.8332,34.0208,157.6197,33.1903,159.4482,32.4544,161.2564,31.6728,163.1033,30.9784,164.824,30" style="stroke:#181818;stroke-width:1.0;"/></g><!--MD5=[ae0891d367760690b9c716a661f773c7]
link Magic to Pixels--><g id="link_Magic_Pixels"><path d="M246.281,30 L246.281,30.0934 L252.186,29.8159 L258.091,30.0859 L263.996,30.1776 L269.901,29.6829 L275.806,30 " fill="none" style="stroke:#181818;stroke-width:1.0;"/><polygon fill="#181818" points="280.952,30,280.9805,30.064,279.0959,29.0738,277.3782,28.4589,275.6061,27.7217,273.6554,26.5827,271.952,26,271.9337,25.9817,272.6515,26.6995,273.4616,27.5096,274.3359,28.3839,274.989,29.037,275.952,30,276.0825,30.1305,275.0034,30.6514,274.3054,31.5534,273.6538,32.5018,272.7318,33.1798,271.952,34,271.9612,34.0208,273.7477,33.1903,275.5762,32.4544,277.3844,31.6728,279.2313,30.9784,280.952,30" style="stroke:#181818;stroke-width:1.0;"/></g><!--MD5=[870f343bd0d18967e5813fb41e04ebfa]
@startuml
skinparam BackgroundColor transparent
skinparam componentStyle uml2
skinparam handwritten true


[Application]->[Magic]

[Magic]->[Pixels]
@enduml

PlantUML version 1.2022.13beta2(Unknown compile time)
(GPL source distribution)
Java Runtime: Java(TM) SE Runtime Environment
JVM: Java HotSpot(TM) 64-Bit Server VM
Default Encoding: UTF-8
Language: en
Country: US
--></g></svg>