<?xml version="1.0" encoding="UTF-8" standalone="no"?><svg xmlns="http://www.w3.org/2000/svg" xmlns:xlink="http://www.w3.org/1999/xlink" contentStyleType="text/css" height="444px" preserveAspectRatio="none" style="width:505px;height:444px;" version="1.1" viewBox="0 0 505 444" width="505px" zoomAndPan="magnify"><defs/><g><!--MD5=[5f6edaeee92279f7276e07d797b99fb6]
cluster Magic--><g id="cluster_Magic"><polygon fill="none" points="160,7,160,7.2102,170.0435,6.5857,180.087,7.1933,190.1304,7.3997,200.1739,6.2866,210.2174,6.9223,220.2609,6.5735,230.3043,6.6165,240.3478,6.9318,250.3913,6.3086,260.4348,7.5536,270.4783,6.3697,280.5217,6.8022,290.5652,7.4319,300.6087,6.9142,310.6522,7.0682,320.6957,6.9681,330.7391,7.1785,340.7826,7.2391,350.8261,7.5857,360.8696,7.6711,370.913,7.6793,380.9565,7.2546,391,7,391.0591,7.1428,391.4431,7.3627,391.6151,7.0708,392.1472,7.6483,392.3764,7.4945,392.7678,7.7322,392.9322,7.8003,392.7618,8.0226,393.0396,8.4306,393.4355,8.8875,393.3385,9.1402,393.5,9.5,393.6053,9.5,393.8386,19.407,393.9162,29.314,393.4961,39.2209,393.7872,49.1279,392.9276,59.0349,393.7844,68.9419,394.0482,78.8488,393.9445,88.7558,394.113,98.6628,393.0169,108.5698,392.8478,118.4767,392.8786,128.3837,393.4411,138.2907,393.3035,148.1977,394.1814,158.1047,393.3253,168.0116,393.1569,177.9186,393.7283,187.8256,392.8332,197.7326,392.9809,207.6395,394.149,217.5465,393.9357,227.4535,394.2345,237.3605,393.1782,247.2674,393.8192,257.1744,394.0904,267.0814,393.0276,276.9884,393.4041,286.8953,393.626,296.8023,394.1518,306.7093,393.4958,316.6163,393.9626,326.5233,392.9462,336.4302,392.8227,346.3372,394.0036,356.2442,392.7831,366.1512,394.009,376.0581,393.7066,385.9651,393.2321,395.8721,393.1462,405.7791,393.9588,415.686,393.2007,425.593,393.5,435.5,393.6823,435.5755,393.1833,435.783,393.3972,436.2859,393.2098,436.6224,392.9897,436.9455,392.7678,437.2678,392.7738,437.2823,392.5069,437.638,392.1389,437.7496,391.7287,437.7592,391.3878,437.9361,391,438,391,437.8697,380.9565,438.7165,370.913,438.1549,360.8696,438.1726,350.8261,437.3916,340.7826,437.5948,330.7391,438.5307,320.6957,438.4298,310.6522,437.9571,300.6087,437.6778,290.5652,437.7811,280.5217,437.3138,270.4783,438.4147,260.4348,438.7396,250.3913,438.5264,240.3478,438.6949,230.3043,437.8633,220.2609,438.0872,210.2174,437.6124,200.1739,438.284,190.1304,438.2468,180.087,438.5524,170.0435,437.7703,160,438,159.9829,437.9586,159.703,437.9901,159.3653,437.8818,158.874,437.4028,158.5611,437.3545,158.2322,437.2678,158.2782,437.2868,157.8977,436.8363,158.0482,436.6057,157.8723,436.24,157.6154,435.8407,157.5,435.5,157.6422,435.5,158.2287,425.593,157.1871,415.686,157.815,405.7791,157.7856,395.8721,157.6158,385.9651,157.6409,376.0581,157.6135,366.1512,156.8758,356.2442,157.0992,346.3372,157.0385,336.4302,157.5638,326.5233,157.5881,316.6163,157.6617,306.7093,157.209,296.8023,157.4325,286.8953,157.3798,276.9884,158.0769,267.0814,157.9266,257.1744,157.0145,247.2674,157.4271,237.3605,156.9228,227.4535,157.7884,217.5465,158.1085,207.6395,158.0446,197.7326,157.0644,187.8256,157.964,177.9186,156.7572,168.0116,157.7002,158.1047,157.2007,148.1977,157.5967,138.2907,157.7403,128.3837,157.9721,118.4767,156.7801,108.5698,157.9755,98.6628,157.6782,88.7558,157.8553,78.8488,158.2478,68.9419,157.5055,59.0349,157.6753,49.1279,157.7134,39.2209,157.6972,29.314,157.4992,19.407,157.5,9.5,157.7189,9.5907,157.4587,9.0687,157.967,8.865,157.7472,8.3597,157.9194,8.0169,158.2322,7.7322,158.2373,7.7446,158.5894,7.5945,158.8765,7.2876,159.3457,7.4203,159.6603,7.18,160,7" style="stroke:#181818;stroke-width:1.0;"/><text fill="#000000" font-family="sans-serif" font-size="14" font-weight="bold" lengthAdjust="spacing" textLength="48" x="251.5" y="21.9951">Magic</text></g><!--MD5=[0605153d46e66a1141daee4f82280783]
entity Web Browser--><g id="elem_Web Browser"><polygon fill="#F1F1F1" points="214.5,50,214.5,50.2102,224.5,49.5857,234.5,50.1933,244.5,50.3997,254.5,49.2866,264.5,49.9223,274.5,49.5735,284.5,49.6165,294.5,49.9318,304.5,49.3086,314.5,50.5536,324.5,49.3697,334.5,49.8022,344.5,50,344.5551,50.133,344.8426,50.12,345.2158,50.3139,345.5566,50.4295,345.937,50.6408,346.2678,50.7322,346.3414,50.7627,346.5946,51.1605,346.7673,51.5249,346.9163,51.8795,346.932,52.1789,347,52.5,347.1545,52.5,347.2341,60.7594,346.7596,69.0188,347.2262,77.2781,346.9012,85.5375,347,93.7969,347.1644,93.865,346.7011,94.0873,346.686,94.4952,346.789,94.9521,346.3992,95.2049,346.2678,95.5646,346.2812,95.5971,345.9574,95.8154,345.6138,95.9857,345.2066,96.0028,344.8902,96.2389,344.5,96.2969,344.5,95.7245,334.5,96.5813,324.5,96.8451,314.5,96.7414,304.5,96.9099,294.5,95.8138,284.5,95.6447,274.5,95.6755,264.5,96.238,254.5,96.1003,244.5,96.9783,234.5,96.1222,224.5,95.9538,214.5,96.2969,214.5291,96.3672,214.0614,95.9451,213.7267,95.8441,213.5221,96.0574,213.1414,95.8453,212.7322,95.5646,212.9584,95.6583,212.4867,95.17,212.5376,94.8983,212.4747,94.5793,212.001,94.0902,212,93.7969,211.968,93.7969,212.042,85.5375,212.2173,77.2781,211.9986,69.0188,212.1542,60.7594,212,52.5,211.8295,52.4294,211.9379,52.0601,212.448,51.8571,212.2186,51.3479,212.7425,51.1507,212.7322,50.7322,212.7586,50.7959,213.0516,50.5033,213.3942,50.3304,213.8514,50.4342,214.1083,50.0543,214.5,50" style="stroke:#181818;stroke-width:0.5;"/><polygon fill="#F1F1F1" points="327,55,327,55.0701,330,54.8619,333,55.0644,336,55.1332,339,54.7622,342,55,341.9741,55,341.8578,57,341.8722,59,341.9773,61,341.7695,63,342,65,342,65.1845,339,64.7899,336,64.9341,333,65.144,330,64.9714,327,65,327.0227,65,326.9894,63,327.0595,61,327.0797,59,327.1952,57,327,55" style="stroke:#181818;stroke-width:0.5;"/><polygon fill="#F1F1F1" points="325,57,325,57.0701,325.8,56.8619,326.6,57.0644,327.4,57.1332,328.2,56.7622,329,57,328.9741,57,328.8578,57.4,328.8722,57.8,328.9773,58.2,328.7695,58.6,329,59,329,59.1845,328.2,58.7899,327.4,58.9341,326.6,59.144,325.8,58.9714,325,59,325.0227,59,324.9894,58.6,325.0595,58.2,325.0797,57.8,325.1952,57.4,325,57" style="stroke:#181818;stroke-width:0.5;"/><polygon fill="#F1F1F1" points="325,61,325,61.0701,325.8,60.8619,326.6,61.0644,327.4,61.1332,328.2,60.7622,329,61,328.9741,61,328.8578,61.4,328.8722,61.8,328.9773,62.2,328.7695,62.6,329,63,329,63.1845,328.2,62.7899,327.4,62.9341,326.6,63.144,325.8,62.9714,325,63,325.0227,63,324.9894,62.6,325.0595,62.2,325.0797,61.8,325.1952,61.4,325,61" style="stroke:#181818;stroke-width:0.5;"/><text fill="#000000" font-family="sans-serif" font-size="14" lengthAdjust="spacing" textLength="95" x="227" y="82.9951">Web Browser</text></g><!--MD5=[11ede5082be11f43a96b1d8fb5ca6bfe]
entity User mode Driver--><g id="elem_User mode Driver"><polygon fill="#F1F1F1" points="200,156,200,156.2102,209.9375,155.5857,219.875,156.1933,229.8125,156.3997,239.75,155.2866,249.6875,155.9223,259.625,155.5735,269.5625,155.6165,279.5,155.9318,289.4375,155.3086,299.375,156.5536,309.3125,155.3697,319.25,155.8022,329.1875,156.4319,339.125,155.9142,349.0625,156.0682,359,156,358.9959,155.9902,359.3763,156.2014,359.7376,156.3665,360.1354,156.6197,360.4998,156.7924,360.7678,156.7322,360.977,156.8189,360.9926,157.1183,361.2034,157.4985,361.4234,157.8825,361.1315,158.0545,361.5,158.5,361.7262,158.5,361.4012,166.7594,361.6779,175.0188,361.335,183.2781,361.4772,191.5375,361.5,199.7969,361.7284,199.8915,361.3385,200.1442,361.2395,200.5174,361.1649,200.9007,361.0424,201.2642,360.7678,201.5646,360.7673,201.5634,360.4509,201.7995,359.9876,201.6813,359.7434,202.0916,359.4235,202.3193,359,202.2969,359,202.7414,349.0625,202.9099,339.125,201.8138,329.1875,201.6447,319.25,201.6755,309.3125,202.238,299.375,202.1003,289.4375,202.9783,279.5,202.1222,269.5625,201.9538,259.625,202.5251,249.6875,201.63,239.75,201.7777,229.8125,202.9458,219.875,202.7325,209.9375,203.0314,200,202.2969,199.959,202.1978,199.6872,202.2487,199.3682,202.1858,198.8791,201.7121,198.5736,201.6816,198.2322,201.5646,198.271,201.5807,198.2865,201.2942,197.938,200.857,197.9353,200.563,197.4759,200.0798,197.5,199.7969,197.2742,199.7969,197.6679,191.5375,197.261,183.2781,197.6697,175.0188,197.5689,166.7594,197.5,158.5,197.4175,158.4658,197.5375,158.1013,197.9342,157.8514,197.8472,157.4012,198.2681,157.1613,198.2322,156.7322,198.1617,156.562,198.6645,156.7759,199.0011,156.5885,199.3241,156.3683,199.6525,156.161,200,156" style="stroke:#181818;stroke-width:0.5;"/><polygon fill="#F1F1F1" points="341.5,161,341.5,161.0701,344.5,160.8619,347.5,161.0644,350.5,161.1332,353.5,160.7622,356.5,161,356.4741,161,356.3578,163,356.3722,165,356.4773,167,356.2695,169,356.5,171,356.5,171.1845,353.5,170.7899,350.5,170.9341,347.5,171.144,344.5,170.9714,341.5,171,341.5227,171,341.4894,169,341.5595,167,341.5797,165,341.6952,163,341.5,161" style="stroke:#181818;stroke-width:0.5;"/><polygon fill="#F1F1F1" points="339.5,163,339.5,163.0701,340.3,162.8619,341.1,163.0644,341.9,163.1332,342.7,162.7622,343.5,163,343.4741,163,343.3578,163.4,343.3722,163.8,343.4773,164.2,343.2695,164.6,343.5,165,343.5,165.1845,342.7,164.7899,341.9,164.9341,341.1,165.144,340.3,164.9714,339.5,165,339.5227,165,339.4894,164.6,339.5595,164.2,339.5797,163.8,339.6952,163.4,339.5,163" style="stroke:#181818;stroke-width:0.5;"/><polygon fill="#F1F1F1" points="339.5,167,339.5,167.0701,340.3,166.8619,341.1,167.0644,341.9,167.1332,342.7,166.7622,343.5,167,343.4741,167,343.3578,167.4,343.3722,167.8,343.4773,168.2,343.2695,168.6,343.5,169,343.5,169.1845,342.7,168.7899,341.9,168.9341,341.1,169.144,340.3,168.9714,339.5,169,339.5227,169,339.4894,168.6,339.5595,168.2,339.5797,167.8,339.6952,167.4,339.5,167" style="stroke:#181818;stroke-width:0.5;"/><text fill="#000000" font-family="sans-serif" font-size="14" lengthAdjust="spacing" textLength="124" x="212.5" y="188.9951">User mode Driver</text></g><!--MD5=[33c0991a8851763f97139b7ade4f6f84]
entity OS--><g id="elem_OS"><polygon fill="#F1F1F1" points="252,262,252,262.2102,261.1667,261.5857,270.3333,262.1933,279.5,262.3997,288.6667,261.2866,297.8333,261.9223,307,262,306.9456,261.8687,307.3046,262.0283,307.6984,262.2719,307.9725,262.2264,308.4848,262.7563,308.7678,262.7322,308.5737,262.6518,308.8533,263.0606,309.1937,263.4944,309.1807,263.782,309.3746,264.1552,309.5,264.5,309.4894,264.5,309.5595,272.7594,309.5797,281.0188,309.6952,289.2781,309.7237,297.5375,309.5,305.7969,309.7092,305.8835,309.432,306.1829,309.3499,306.5631,309.2769,306.9471,308.6921,307.1191,308.7678,307.5646,308.8543,307.7736,308.3764,307.6198,308.1288,308.0219,307.644,307.8515,307.3448,308.1293,307,308.2969,307,309.0385,297.8333,308.2481,288.6667,308.4022,279.5,308.6355,270.3333,308.7131,261.1667,308.293,252,308.2969,252.0366,308.3853,251.5734,307.9741,251.3292,308.0916,251.0093,308.0264,250.6425,307.848,250.2322,307.5646,250.421,307.6428,249.937,307.1495,249.7385,306.7743,249.6015,306.4247,249.6283,306.1429,249.5,305.7969,249.4345,305.7969,249.7271,297.5375,249.4418,289.2781,249.3856,281.0188,249.5761,272.7594,249.5,264.5,249.2946,264.4149,249.4866,264.0802,249.9927,263.8757,250.0735,263.4949,250.312,263.1795,250.2322,262.7322,250.1912,262.6331,250.6265,262.6841,251.0147,262.6212,251.2326,262.1474,251.6342,262.1169,252,262" style="stroke:#181818;stroke-width:0.5;"/><polygon fill="#F1F1F1" points="289.5,267,289.5,267.0701,292.5,266.8619,295.5,267.0644,298.5,267.1332,301.5,266.7622,304.5,267,304.4741,267,304.3578,269,304.3722,271,304.4773,273,304.2695,275,304.5,277,304.5,277.1845,301.5,276.7899,298.5,276.9341,295.5,277.144,292.5,276.9714,289.5,277,289.5227,277,289.4894,275,289.5595,273,289.5797,271,289.6952,269,289.5,267" style="stroke:#181818;stroke-width:0.5;"/><polygon fill="#F1F1F1" points="287.5,269,287.5,269.0701,288.3,268.8619,289.1,269.0644,289.9,269.1332,290.7,268.7622,291.5,269,291.4741,269,291.3578,269.4,291.3722,269.8,291.4773,270.2,291.2695,270.6,291.5,271,291.5,271.1845,290.7,270.7899,289.9,270.9341,289.1,271.144,288.3,270.9714,287.5,271,287.5227,271,287.4894,270.6,287.5595,270.2,287.5797,269.8,287.6952,269.4,287.5,269" style="stroke:#181818;stroke-width:0.5;"/><polygon fill="#F1F1F1" points="287.5,273,287.5,273.0701,288.3,272.8619,289.1,273.0644,289.9,273.1332,290.7,272.7622,291.5,273,291.4741,273,291.3578,273.4,291.3722,273.8,291.4773,274.2,291.2695,274.6,291.5,275,291.5,275.1845,290.7,274.7899,289.9,274.9341,289.1,275.144,288.3,274.9714,287.5,275,287.5227,275,287.4894,274.6,287.5595,274.2,287.5797,273.8,287.6952,273.4,287.5,273" style="stroke:#181818;stroke-width:0.5;"/><text fill="#000000" font-family="sans-serif" font-size="14" lengthAdjust="spacing" textLength="20" x="264.5" y="294.9951">OS</text></g><!--MD5=[1d1bb2dd896d83a3a4ea75f6946d41eb]
entity Kernel mode Driver--><g id="elem_Kernel mode Driver"><polygon fill="#F1F1F1" points="192,368,192,368.2102,201.7222,367.5857,211.4444,368.1933,221.1667,368.3997,230.8889,367.2866,240.6111,367.9223,250.3333,367.5735,260.0556,367.6165,269.7778,367.9318,279.5,367.3086,289.2222,368.5536,298.9444,367.3697,308.6667,367.8022,318.3889,368.4319,328.1111,367.9142,337.8333,368.0682,347.5556,367.9681,357.2778,368.1785,367,368,367.0305,368.0736,367.4283,368.3268,367.7927,368.4996,368.1473,368.6485,368.4467,368.6642,368.7678,368.7322,368.9105,368.7914,369.1305,369.1754,368.8386,369.3473,369.4161,369.8794,369.2622,370.1086,369.5,370.5,369.6779,370.5,369.335,378.7594,369.4772,387.0188,369.7472,395.2781,369.4838,403.5375,369.5,411.7969,369.5324,411.8103,369.4578,412.1936,369.3353,412.5571,369.0595,412.857,369.0027,413.2477,368.7678,413.5646,368.6947,413.3884,368.4505,413.7987,368.1306,414.0264,367.7638,414.1409,367.4318,414.3392,367,414.2969,367,413.8138,357.2778,413.6447,347.5556,413.6755,337.8333,414.238,328.1111,414.1003,318.3889,414.9783,308.6667,414.1222,298.9444,413.9538,289.2222,414.5251,279.5,413.63,269.7778,413.7777,260.0556,414.9458,250.3333,414.7325,240.6111,415.0314,230.8889,413.9751,221.1667,414.6161,211.4444,414.8873,201.7222,413.8245,192,414.2969,191.9878,414.2674,191.6625,414.1892,191.376,414.2047,190.9388,413.8562,190.6448,413.8535,190.2322,413.5646,190.0617,413.494,189.8772,413.1247,190.0944,412.9218,189.5721,412.4125,189.8032,412.2154,189.5,411.7969,189.5689,411.7969,189.4107,403.5375,189.3821,395.2781,189.6529,387.0188,189.4002,378.7594,189.5,370.5,189.6823,370.5755,189.4762,370.0759,189.983,369.8717,190.0885,369.5011,190.1612,369.117,190.2322,368.7322,190.2383,368.7468,190.6785,368.8096,191.0176,368.6283,191.3145,368.345,191.6807,368.229,192,368" style="stroke:#181818;stroke-width:0.5;"/><polygon fill="#F1F1F1" points="349.5,373,349.5,373.0701,352.5,372.8619,355.5,373.0644,358.5,373.1332,361.5,372.7622,364.5,373,364.4741,373,364.3578,375,364.3722,377,364.4773,379,364.2695,381,364.5,383,364.5,383.1845,361.5,382.7899,358.5,382.9341,355.5,383.144,352.5,382.9714,349.5,383,349.5227,383,349.4894,381,349.5595,379,349.5797,377,349.6952,375,349.5,373" style="stroke:#181818;stroke-width:0.5;"/><polygon fill="#F1F1F1" points="347.5,375,347.5,375.0701,348.3,374.8619,349.1,375.0644,349.9,375.1332,350.7,374.7622,351.5,375,351.4741,375,351.3578,375.4,351.3722,375.8,351.4773,376.2,351.2695,376.6,351.5,377,351.5,377.1845,350.7,376.7899,349.9,376.9341,349.1,377.144,348.3,376.9714,347.5,377,347.5227,377,347.4894,376.6,347.5595,376.2,347.5797,375.8,347.6952,375.4,347.5,375" style="stroke:#181818;stroke-width:0.5;"/><polygon fill="#F1F1F1" points="347.5,379,347.5,379.0701,348.3,378.8619,349.1,379.0644,349.9,379.1332,350.7,378.7622,351.5,379,351.4741,379,351.3578,379.4,351.3722,379.8,351.4773,380.2,351.2695,380.6,351.5,381,351.5,381.1845,350.7,380.7899,349.9,380.9341,349.1,381.144,348.3,380.9714,347.5,381,347.5227,381,347.4894,380.6,347.5595,380.2,347.5797,379.8,347.6952,379.4,347.5,379" style="stroke:#181818;stroke-width:0.5;"/><text fill="#000000" font-family="sans-serif" font-size="14" lengthAdjust="spacing" textLength="140" x="204.5" y="400.9951">Kernel mode Driver</text></g><!--MD5=[e5b7da8fa23ec8cac7d321a34f6e9ee1]
entity Application--><g id="elem_Application"><polygon fill="#F1F1F1" points="9.5,50,9.5,50.2102,19.3333,49.5857,29.1667,50.1933,39,50.3997,48.8333,49.2866,58.6667,49.9223,68.5,49.5735,78.3333,49.6165,88.1667,49.9318,98,49.3086,107.8333,50.5536,117.6667,49.3697,127.5,50,127.4748,49.9391,127.9087,50.2795,128.1962,50.2665,128.5694,50.4604,128.9101,50.5759,129.2678,50.7322,129.3227,50.755,129.4879,51.1163,129.741,51.5141,129.9138,51.8785,130.0627,52.2331,130,52.5,130.0849,52.5,130.1545,60.7594,130.2341,69.0188,129.7596,77.2781,130.2262,85.5375,130,93.7969,129.9087,93.7591,130.0179,94.2185,129.5547,94.4408,129.5396,94.8488,129.6426,95.3057,129.2678,95.5646,129.2616,95.5496,128.9276,95.7435,128.6039,95.9618,128.2602,96.1322,127.8531,96.1492,127.5,96.2969,127.5,96.5841,117.6667,95.7245,107.8333,96.5813,98,96.8451,88.1667,96.7414,78.3333,96.9099,68.5,95.8138,58.6667,95.6447,48.8333,95.6755,39,96.238,29.1667,96.1003,19.3333,96.9783,9.5,96.2969,9.4777,96.2431,9.1027,96.0448,8.822,96.0743,8.3543,95.6522,8.0196,95.5512,7.7322,95.5646,7.9321,95.6474,7.72,95.2667,7.6655,94.9512,7.1938,94.4629,7.2447,94.1911,7,93.7969,7.1968,93.7969,6.8425,85.5375,6.968,77.2781,7.042,69.0188,7.2173,60.7594,7,52.5,6.9987,52.4995,7.2889,52.2055,7.1223,51.7223,7.2308,51.3529,7.7409,51.15,7.7322,50.7322,7.6408,50.5114,8.1507,50.7425,8.4657,50.503,8.7587,50.2104,9.1013,50.0375,9.5,50" style="stroke:#181818;stroke-width:0.5;"/><polygon fill="#F1F1F1" points="110,55,110,55.0701,113,54.8619,116,55.0644,119,55.1332,122,54.7622,125,55,124.9741,55,124.8578,57,124.8722,59,124.9773,61,124.7695,63,125,65,125,65.1845,122,64.7899,119,64.9341,116,65.144,113,64.9714,110,65,110.0227,65,109.9894,63,110.0595,61,110.0797,59,110.1952,57,110,55" style="stroke:#181818;stroke-width:0.5;"/><polygon fill="#F1F1F1" points="108,57,108,57.0701,108.8,56.8619,109.6,57.0644,110.4,57.1332,111.2,56.7622,112,57,111.9741,57,111.8578,57.4,111.8722,57.8,111.9773,58.2,111.7695,58.6,112,59,112,59.1845,111.2,58.7899,110.4,58.9341,109.6,59.144,108.8,58.9714,108,59,108.0227,59,107.9894,58.6,108.0595,58.2,108.0797,57.8,108.1952,57.4,108,57" style="stroke:#181818;stroke-width:0.5;"/><polygon fill="#F1F1F1" points="108,61,108,61.0701,108.8,60.8619,109.6,61.0644,110.4,61.1332,111.2,60.7622,112,61,111.9741,61,111.8578,61.4,111.8722,61.8,111.9773,62.2,111.7695,62.6,112,63,112,63.1845,111.2,62.7899,110.4,62.9341,109.6,63.144,108.8,62.9714,108,63,108.0227,63,107.9894,62.6,108.0595,62.2,108.0797,61.8,108.1952,61.4,108,61" style="stroke:#181818;stroke-width:0.5;"/><text fill="#000000" font-family="sans-serif" font-size="14" lengthAdjust="spacing" textLength="83" x="22" y="82.9951">Application</text></g><!--MD5=[487b6966228a0bf8882d8384eba68abd]
entity Pixels--><g id="elem_Pixels"><polygon fill="#F1F1F1" points="420.5,368,420.5,368.2102,430,367.5857,439.5,368.1933,449,368.3997,458.5,367.2866,468,367.9223,477.5,367.5735,487,367.6165,496.5,368,496.4913,367.979,496.7654,367.9335,497.2777,368.4634,497.4803,368.2452,497.889,368.5249,498.2678,368.7322,498.4008,368.7873,498.3878,369.0748,498.5817,369.448,498.6973,369.7888,498.9085,370.1692,499,370.5,499.0797,370.5,499.1952,378.7594,499.2237,387.0188,499.2264,395.2781,499.0849,403.5375,499,411.7969,499.1428,411.856,499.0698,412.24,498.485,412.412,498.7696,412.9441,498.3229,413.1733,498.2678,413.5646,498.3359,413.729,497.8511,413.5586,497.5519,413.8364,497.3017,414.2324,496.8473,414.1354,496.5,414.2969,496.5,414.4022,487,414.6355,477.5,414.7131,468,414.293,458.5,414.5841,449,413.7245,439.5,414.5813,430,414.8451,420.5,414.2969,420.5567,414.4338,420.2246,414.3392,419.7313,413.8552,419.3561,413.6567,419.0065,413.5197,418.7322,413.5646,418.7141,413.5571,418.5253,413.186,418.6492,412.9445,418.2391,412.4817,418.0408,412.1067,418,411.7969,418.0761,411.7969,417.7777,403.5375,417.827,395.2781,418.2163,387.0188,418.1452,378.7594,418,370.5,418.2262,370.5937,418.0473,370.1054,418.3912,369.8336,418.6212,369.5147,418.4403,369.0255,418.7322,368.7322,418.72,368.7027,419.1019,368.6246,419.5225,368.6401,419.7924,368.2916,420.2055,368.2889,420.5,368" style="stroke:#181818;stroke-width:0.5;"/><polygon fill="#F1F1F1" points="479,373,479,373.0701,482,372.8619,485,373.0644,488,373.1332,491,372.7622,494,373,493.9741,373,493.8578,375,493.8722,377,493.9773,379,493.7695,381,494,383,494,383.1845,491,382.7899,488,382.9341,485,383.144,482,382.9714,479,383,479.0227,383,478.9894,381,479.0595,379,479.0797,377,479.1952,375,479,373" style="stroke:#181818;stroke-width:0.5;"/><polygon fill="#F1F1F1" points="477,375,477,375.0701,477.8,374.8619,478.6,375.0644,479.4,375.1332,480.2,374.7622,481,375,480.9741,375,480.8578,375.4,480.8722,375.8,480.9773,376.2,480.7695,376.6,481,377,481,377.1845,480.2,376.7899,479.4,376.9341,478.6,377.144,477.8,376.9714,477,377,477.0227,377,476.9894,376.6,477.0595,376.2,477.0797,375.8,477.1952,375.4,477,375" style="stroke:#181818;stroke-width:0.5;"/><polygon fill="#F1F1F1" points="477,379,477,379.0701,477.8,378.8619,478.6,379.0644,479.4,379.1332,480.2,378.7622,481,379,480.9741,379,480.8578,379.4,480.8722,379.8,480.9773,380.2,480.7695,380.6,481,381,481,381.1845,480.2,380.7899,479.4,380.9341,478.6,381.144,477.8,380.9714,477,381,477.0227,381,476.9894,380.6,477.0595,380.2,477.0797,379.8,477.1952,379.4,477,379" style="stroke:#181818;stroke-width:0.5;"/><text fill="#000000" font-family="sans-serif" font-size="14" lengthAdjust="spacing" textLength="41" x="433" y="400.9951">Pixels</text></g><!--MD5=[30861b7c27f276673f0b12aecfe95e8f]
link Application to Magic--><g id="link_Application_Magic"><path d="M130.262,73 L130.262,73.0934 L133.7307,72.8159 L137.1994,73.0859 L140.6681,73.1776 L144.1368,72.6829 L147.6055,73 L147.6055,72.9655 L149.3399,72.8104 L151.0742,72.8296 L152.8086,72.9697 L154.543,72.6927 L156.2773,73 L156.2773,73.2461 L156.4941,72.7199 L156.7109,72.9121 L156.9277,73.192 L157.1445,72.9619 L157.3613,73 L157.3613,73.0303 L157.3884,72.9858 L157.4155,73.0793 L157.4426,73.1063 L157.4697,73.2603 L157.4968,73 " fill="none" style="stroke:#181818;stroke-width:1.0;"/><polygon fill="#181818" points="157.4968,73,157.5253,73.064,155.6407,72.0738,153.923,71.4589,152.1509,70.7217,150.2002,69.5827,148.4968,69,148.4785,68.9817,149.1963,69.6995,150.0064,70.5096,150.8807,71.3839,151.5339,72.037,152.4968,73,152.6273,73.1305,151.5483,73.6514,150.8502,74.5534,150.1986,75.5018,149.2766,76.1798,148.4968,77,148.506,77.0208,150.2925,76.1903,152.121,75.4544,153.9292,74.6728,155.7761,73.9784,157.4968,73" style="stroke:#181818;stroke-width:1.0;"/></g><!--MD5=[70077ed72613c176437c4089b05fbb74]
link Web Browser to User mode Driver--><g id="link_Web Browser_User mode Driver"><path d="M279.5,96.056 L279.7802,96.056 L278.9476,107.0132 L279.7577,117.9704 L280.0329,128.9276 L278.5488,139.8848 L279.5,150.842 " fill="none" style="stroke:#181818;stroke-width:1.0;"/><polygon fill="#181818" points="279.5,155.976,279.564,156.0045,280.1738,154.1199,281.1589,152.4022,282.0217,150.6301,282.4827,148.6794,283.5,146.976,283.4817,146.9577,282.5995,147.6755,281.8096,148.4856,281.0839,149.3599,280.137,150.013,279.5,150.976,279.6305,151.1065,278.5514,150.0274,277.8534,149.3294,277.2018,148.6778,276.2798,147.7558,275.5,146.976,275.5208,146.9852,276.2903,148.7717,277.1544,150.6002,277.9728,152.4084,278.8784,154.2553,279.5,155.976" style="stroke:#181818;stroke-width:1.0;"/></g><!--MD5=[5d0793f7a5d2cc6878e915f4918b1d71]
link User mode Driver to OS--><g id="link_User mode Driver_OS"><path d="M279.5,202.056 L279.7802,202.056 L278.9476,213.0132 L279.7577,223.9704 L280.0329,234.9276 L278.5488,245.8848 L279.5,256.842 " fill="none" style="stroke:#181818;stroke-width:1.0;"/><polygon fill="#181818" points="279.5,261.976,279.564,262.0045,280.1738,260.1199,281.1589,258.4022,282.0217,256.6301,282.4827,254.6794,283.5,252.976,283.4817,252.9577,282.5995,253.6755,281.8096,254.4856,281.0839,255.3599,280.137,256.013,279.5,256.976,279.6305,257.1065,278.5514,256.0274,277.8534,255.3294,277.2018,254.6778,276.2798,253.7558,275.5,252.976,275.5208,252.9852,276.2903,254.7717,277.1544,256.6002,277.9728,258.4084,278.8784,260.2553,279.5,261.976" style="stroke:#181818;stroke-width:1.0;"/></g><!--MD5=[cc80d86a3c535fb37de487339e2c9e9b]
link OS to Kernel mode Driver--><g id="link_OS_Kernel mode Driver"><path d="M279.5,308.056 L279.7802,308.056 L278.9476,319.0132 L279.7577,329.9703 L280.0329,340.9275 L278.5488,351.8846 L279.5,362.8418 " fill="none" style="stroke:#181818;stroke-width:1.0;"/><polygon fill="#181818" points="279.5,367.9761,279.564,368.0046,280.1738,366.12,281.1589,364.4023,282.0217,362.6302,282.4827,360.6795,283.5,358.9761,283.4817,358.9578,282.5995,359.6756,281.8096,360.4857,281.0839,361.36,280.137,362.0131,279.5,362.9761,279.6305,363.1066,278.5514,362.0275,277.8534,361.3295,277.2018,360.6779,276.2798,359.7559,275.5,358.9761,275.5208,358.9853,276.2903,360.7718,277.1544,362.6003,277.9728,364.4085,278.8784,366.2554,279.5,367.9761" style="stroke:#181818;stroke-width:1.0;"/></g><!--MD5=[08e7d11dfb7a754fd92a11b002db0050]
link Kernel mode Driver to Pixels--><g id="link_Kernel mode Driver_Pixels"><path d="M369.699,391 L369.699,391.0934 L378.2876,390.8159 L386.8762,391.0859 L395.4648,391.1776 L404.0534,390.6829 L412.642,391 " fill="none" style="stroke:#181818;stroke-width:1.0;"/><polygon fill="#181818" points="417.915,391,417.9435,391.064,416.0589,390.0738,414.3412,389.4589,412.5691,388.7217,410.6184,387.5827,408.915,387,408.8967,386.9817,409.6145,387.6995,410.4246,388.5096,411.2989,389.3839,411.952,390.037,412.915,391,413.0455,391.1305,411.9664,391.6514,411.2684,392.5534,410.6168,393.5018,409.6948,394.1798,408.915,395,408.9242,395.0208,410.7107,394.1903,412.5392,393.4544,414.3474,392.6728,416.1943,391.9784,417.915,391" style="stroke:#181818;stroke-width:1.0;"/></g><!--MD5=[7778f32925000076c29d036f19c71be9]
@startuml
skinparam BackgroundColor transparent
skinparam componentStyle uml2
skinparam handwritten true



[Application]->[Magic]

rectangle "Magic" {
[Web Browser] - -> [User mode Driver]
[User mode Driver] - -> [OS]
[OS] - -> [Kernel mode Driver]
}

[Kernel mode Driver]->[Pixels]
@enduml

PlantUML version 1.2022.13beta2(Unknown compile time)
(GPL source distribution)
Java Runtime: Java(TM) SE Runtime Environment
JVM: Java HotSpot(TM) 64-Bit Server VM
Default Encoding: UTF-8
Language: en
Country: US
--></g></svg>