# Blender 4.0.1
# www.blender.org
o Cube
v 0.500000 -2.000000 4.000000
v 0.500000 -2.000000 0.000000
v -0.500000 -2.000000 4.000000
v -0.500000 -2.000000 0.000000
v 0.500000 2.000000 4.000000
v 0.500000 2.000000 0.000000
v -0.500000 2.000000 4.000000
v -0.500000 2.000000 0.000000
v 0.500000 0.000000 0.000000
v -0.500000 0.000000 4.000000
v -0.500000 0.000000 0.000000
v 0.500000 0.000000 4.000000
v 0.500000 1.000000 0.000000
v -0.500000 1.000000 4.000000
v -0.500000 1.000000 0.000000
v 0.500000 1.000000 4.000000
v -0.500000 -1.000000 0.000000
v 0.500000 -1.000000 4.000000
v 0.500000 -1.000000 0.000000
v -0.500000 -1.000000 4.000000
v 0.500000 -2.000000 2.000000
v -0.500000 2.000000 2.000000
v -0.500000 -2.000000 2.000000
v 0.500000 2.000000 2.000000
v 0.500000 1.629415 2.000000
v -0.500000 1.629415 2.000000
v -0.500000 -1.629415 2.000000
v 0.500000 -1.629415 2.000000
v -0.500000 2.000000 3.000000
v 0.500000 -2.000000 3.000000
v -0.500000 -2.000000 3.000000
v 0.500000 2.000000 3.000000
v 0.500000 0.000000 3.629415
v -0.500000 0.000000 3.629415
v 0.500000 1.629415 3.629415
v -0.500000 1.629415 3.629415
v -0.500000 -1.629415 3.629415
v 0.500000 -1.629415 3.629415
v 0.500000 -2.000000 1.000000
v -0.500000 -2.000000 1.000000
v 0.500000 2.000000 1.000000
v 0.500000 0.000000 0.370585
v -0.500000 0.000000 0.370585
v 0.500000 1.629415 0.370585
v -0.500000 1.629415 0.370585
v -0.500000 -1.629415 0.370585
v 0.500000 -1.629415 0.370585
v -0.500000 2.000000 1.000000
vn -0.0000 -0.0000 1.0000
vn -1.0000 -0.0000 -0.0000
vn -0.0000 1.0000 -0.0000
vn -0.0000 -0.0000 -1.0000
vn -0.0000 -1.0000 -0.0000
vn 1.0000 -0.0000 -0.0000
s 0
f 5//1 14//1 16//1
f 36//2 7//2 29//2
f 7//3 32//3 29//3
f 2//4 17//4 19//4
f 1//5 31//5 30//5
f 38//6 1//6 30//6
f 16//6 33//6 35//6
f 9//4 15//4 13//4
f 20//2 34//2 37//2
f 12//1 20//1 18//1
f 13//4 8//4 6//4
f 5//6 35//6 32//6
f 34//2 14//2 36//2
f 16//1 10//1 12//1
f 18//1 3//1 1//1
f 3//2 37//2 31//2
f 33//6 18//6 38//6
f 19//4 11//4 9//4
f 38//4 34//4 33//4
f 40//2 27//2 46//2
f 41//6 25//6 44//6
f 35//5 26//5 25//5
f 28//6 39//6 47//6
f 21//5 40//5 39//5
f 22//3 41//3 48//3
f 26//2 48//2 45//2
f 47//3 27//3 28//3
f 31//2 27//2 23//2
f 32//6 25//6 24//6
f 42//1 46//1 47//1
f 28//6 30//6 21//6
f 30//5 23//5 21//5
f 29//3 24//3 22//3
f 26//2 29//2 22//2
f 45//2 8//2 15//2
f 48//3 6//3 8//3
f 39//5 4//5 2//5
f 47//6 2//6 19//6
f 13//6 42//6 9//6
f 17//2 43//2 11//2
f 6//6 44//6 13//6
f 43//2 15//2 11//2
f 4//2 46//2 17//2
f 42//6 19//6 9//6
f 33//4 36//4 35//4
f 25//5 45//5 44//5
f 28//3 37//3 38//3
f 44//1 43//1 42//1
f 5//1 7//1 14//1
f 36//2 14//2 7//2
f 7//3 5//3 32//3
f 2//4 4//4 17//4
f 1//5 3//5 31//5
f 38//6 18//6 1//6
f 16//6 12//6 33//6
f 9//4 11//4 15//4
f 20//2 10//2 34//2
f 12//1 10//1 20//1
f 13//4 15//4 8//4
f 5//6 16//6 35//6
f 34//2 10//2 14//2
f 16//1 14//1 10//1
f 18//1 20//1 3//1
f 3//2 20//2 37//2
f 33//6 12//6 18//6
f 19//4 17//4 11//4
f 38//4 37//4 34//4
f 40//2 23//2 27//2
f 41//6 24//6 25//6
f 35//5 36//5 26//5
f 28//6 21//6 39//6
f 21//5 23//5 40//5
f 22//3 24//3 41//3
f 26//2 22//2 48//2
f 47//3 46//3 27//3
f 31//2 37//2 27//2
f 32//6 35//6 25//6
f 42//1 43//1 46//1
f 28//6 38//6 30//6
f 30//5 31//5 23//5
f 29//3 32//3 24//3
f 26//2 36//2 29//2
f 45//2 48//2 8//2
f 48//3 41//3 6//3
f 39//5 40//5 4//5
f 47//6 39//6 2//6
f 13//6 44//6 42//6
f 17//2 46//2 43//2
f 6//6 41//6 44//6
f 43//2 45//2 15//2
f 4//2 40//2 46//2
f 42//6 47//6 19//6
f 33//4 34//4 36//4
f 25//5 26//5 45//5
f 28//3 27//3 37//3
f 44//1 45//1 43//1
o Plane
v 0.000000 1.620000 0.380000
v 0.000000 -1.620000 0.380000
v -0.000000 1.620000 3.620000
v -0.000000 -1.620000 3.620000
vn -1.0000 -0.0000 -0.0000
s 0
f 50//7 51//7 49//7
f 50//7 52//7 51//7
